{"title":"JUST TEENS PORN 2 TEEN LOVERS-SILVERDUST{HKRG}","uid":6236030,"size":389170598,"categoryP":"porn","categoryS":"movie_clips","magnet":"?xt=urn:btih:108ae7b58e5f7a45c73e5f84f78f6a5efd4dfe0b&amp;dn=JUST+TEENS+PORN+2+TEEN+LOVERS-SILVERDUST%7BHKRG%7D&amp;tr=udp%3A%2F%2Ftracker.openbittorrent.com%3A80&amp;tr=udp%3A%2F%2Fopen.demonii.com%3A1337&amp;tr=udp%3A%2F%2Ftracker.coppersurfer.tk%3A6969&amp;tr=udp%3A%2F%2Fexodus.desync.com%3A6969","seeders":1,"leechers":1,"uploader":"dodgerblue","files":5,"time":1299875525,"description":"JUST TEENS PORN 2 TEEN LOVERS-SILVERDUST{HKRG}\nIM SPLITTING THESE INTO SINGLE VIDEOS FROM THE SITE I RIPPED SO PPL ON LOWER SPEEDS CAN GRAB THEM TOO.\nWATCH OUT FOR LOTS MORE\nVideo\nID                               : 2\nFormat                           : VC-1\nFormat profile                   : MP@ML\nCodec ID                         : WMV3\nCodec ID/Info                    : Windows Media Video 9\nCodec ID/Hint                    : WMV3\nDescription of the codec         : Windows Media Video 9 - Professional\nDuration                         : 19mn 47s\nBit rate mode                    : Variable\nBit rate                         : 2 500 Kbps\nWidth                            : 720 pixels\nHeight                           : 480 pixels\nDisplay aspect ratio             : 4:3\nFrame rate                       : 25.000 fps\nStandard                         : NTSC\nBit depth                        : 8 bits\nScan type                        : Progressive\nCompression mode                 : Lossy\nBits/(Pixel*Frame)               : 0.289\nStream size                      : 354 MiB (96%)\n\nAudio\nID                               : 1\nFormat                           : WMA\nFormat version                   : Version 2\nCodec ID                         : 161\nCodec ID/Info                    : Windows Media Audio\nDescription of the codec         : Windows Media Audio 9.2 -  96 kbps, 44 kHz, stereo 2-pass CBR\nDuration                         : 19mn 47s\nBit rate mode                    : Constant\nBit rate                         : 96.0 Kbps\nChannel(s)                       : 2 channels\nSampling rate                    : 44.1 KHz\nBit depth                        : 16 bits\nStream size                      : 13.6 MiB (4%) &lt;a href=&quot;\nhttp://img2.immage.de/11033image1456109.jpg&quot; rel=&quot;nofollow&quot; target=&quot;_NEW&quot;&gt;\nhttp://img2.immage.de/11033image1456109.jpg&lt;/a&gt; &lt;a href=&quot;\nhttp://img2.immage.de/1103a8b8eimage1458765.jpg&quot; rel=&quot;nofollow&quot; target=&quot;_NEW&quot;&gt;\nhttp://img2.immage.de/1103a8b8eimage1458765.jpg&lt;/a&gt;\nOR\n[img]http://img2.immage.de/11033image1456109.jpg[/img]\n\n[img]http://img2.immage.de/1103a8b8eimage1458765.jpg[/img]\n\n\nOR &lt;a href=&quot;\nhttp://www.leetleech.org/images/33088928520255893391.jpg&quot; rel=&quot;nofollow&quot; target=&quot;_NEW&quot;&gt;\nhttp://www.leetleech.org/images/33088928520255893391.jpg&lt;/a&gt;\n    &lt;a href=&quot;\thttp://www.leetleech.org/images/29877128048200099357.png&quot; rel=&quot;nofollow&quot; target=&quot;_NEW&quot;&gt;\thttp://www.leetleech.org/images/29877128048200099357.png&lt;/a&gt;\n    &lt;a href=&quot;\thttp://www.leetleech.org/images/90611291827829571955.png&quot; rel=&quot;nofollow&quot; target=&quot;_NEW&quot;&gt;\thttp://www.leetleech.org/images/90611291827829571955.png&lt;/a&gt;\nOR\n [URL=http://www.leetleech.org/][IMG]http://www.leetleech.org/images/33088928520255893391.jpg[/IMG][/URL]\n        [URL=http://www.leetleech.org/][IMG]http://www.leetleech.org/images/29877128048200099357.png[/IMG][/URL]\n        [URL=http://www.leetleech.org/][IMG]http://www.leetleech.org/images/90611291827829571955.png[/IMG][/URL]\nNJOI\n","torrent":{"xt":"urn:btih:108ae7b58e5f7a45c73e5f84f78f6a5efd4dfe0b","amp;dn":"JUST+TEENS+PORN+2+TEEN+LOVERS-SILVERDUST%7BHKRG%7D","amp;tr":["udp%3A%2F%2Ftracker.openbittorrent.com%3A80","udp%3A%2F%2Fopen.demonii.com%3A1337","udp%3A%2F%2Ftracker.coppersurfer.tk%3A6969","udp%3A%2F%2Fexodus.desync.com%3A6969"],"infoHash":"108ae7b58e5f7a45c73e5f84f78f6a5efd4dfe0b","infoHashBuffer":{"type":"Buffer","data":[16,138,231,181,142,95,122,69,199,62,95,132,247,143,106,94,253,77,254,11]},"announce":[],"urlList":[]}}